<svg width="237" height="238" viewBox="0 0 237 238" fill="none" xmlns="http://www.w3.org/2000/svg">
<path d="M10.4038 106.308C13.9559 68.2933 30.4439 38.8762 57.931 22.2727C91.0379 2.27242 134.472 4.47285 177.098 28.3109C190.322 35.7086 209.103 48.187 219.463 71.0651C230.214 94.8075 230.237 124.821 219.528 162.827C197.935 239.48 176.961 236.16 131.002 228.887C126.37 228.153 121.581 227.396 116.46 226.663C86.0602 222.309 60.0303 211.144 41.1814 194.37C21.296 176.671 10.4231 153.43 9.74059 127.158C9.55389 119.957 9.77854 112.999 10.4035 106.311L10.4038 106.308ZM224.291 124.896C229.5 69.1492 202.096 45.2486 175.836 30.5635C134.045 7.19118 91.5581 4.97513 59.2673 24.4815C27.7708 43.5092 11.1045 79.9457 12.3232 127.087C13.6428 177.887 53.6845 215.063 116.827 224.104C121.97 224.839 126.768 225.6 131.408 226.335C177.141 233.575 196.074 236.571 217.044 162.126C220.928 148.344 223.255 135.986 224.291 124.899L224.291 124.896Z" fill="#75C137"/>
<path d="M30.4159 99.6694C33.5838 65.7661 48.2926 39.5315 72.8137 24.7174C102.347 6.87807 141.083 8.83632 179.09 30.0952C190.887 36.6939 207.638 47.8248 216.882 68.2369C226.472 89.4135 226.492 116.179 216.947 150.06C197.68 218.45 178.962 215.488 137.946 208.995C133.821 208.344 129.558 207.667 124.993 207.015C97.8922 203.134 74.6843 193.177 57.874 178.22C40.1343 162.429 30.4337 141.697 29.8255 118.254C29.6582 111.836 29.8587 105.632 30.4159 99.6694ZM220.913 116.234C225.545 66.6557 201.179 45.4036 177.832 32.3452C140.656 11.5546 102.867 9.5779 74.1528 26.9264C46.1442 43.8459 31.3242 76.2582 32.4104 118.188C33.5816 163.36 69.2007 196.418 125.363 204.459C129.944 205.116 134.219 205.793 138.352 206.446C178.997 212.878 195.822 215.541 214.466 149.359C217.921 137.094 219.994 126.099 220.915 116.234L220.913 116.234Z" fill="#75C137"/>
<path d="M50.4195 93.5849C53.204 63.7847 66.3619 40.0535 87.6992 27.1618C113.656 11.4832 147.694 13.1992 181.086 31.8764C191.452 37.6757 206.179 47.4598 214.305 65.4084C222.733 84.0222 222.756 107.535 214.369 137.295C197.43 197.425 180.965 194.819 144.889 189.109C141.312 188.543 137.533 187.944 133.529 187.37C109.724 183.962 89.3348 175.215 74.5691 162.072C58.9721 148.192 50.4442 129.963 49.9097 109.355C49.7704 103.938 49.9415 98.669 50.4166 93.5846L50.4195 93.5849ZM217.536 107.577C221.593 64.1648 200.264 45.5583 179.827 34.1293C147.266 15.9204 114.173 14.1856 89.0383 29.3708C64.5203 44.1824 51.5443 72.5644 52.4949 109.287C53.5234 148.83 84.7142 177.77 133.902 184.812C137.92 185.387 141.71 185.987 145.298 186.554C180.856 192.18 195.573 194.511 211.891 136.589C214.918 125.844 216.732 116.214 217.54 107.571L217.536 107.577Z" fill="#75C137"/>
<path d="M70.4328 86.8704C72.8329 61.1846 84.18 40.7256 102.579 29.6085C124.962 16.088 154.299 17.5645 183.078 33.6602C204.923 45.8778 227.93 67.2431 211.79 124.53C197.178 176.4 182.969 174.149 151.83 169.222C148.758 168.735 145.509 168.221 142.065 167.728C98.5241 161.494 70.9073 135.719 69.9938 100.459C69.8711 95.7932 70.0232 91.2546 70.4326 86.8732L70.4328 86.8704ZM214.154 98.9193C217.635 61.6733 199.343 45.7154 181.817 35.9128C153.871 20.2828 125.476 18.7902 103.915 31.8173C82.8848 44.5206 71.7551 68.8783 72.5761 100.39C73.4562 134.304 100.224 159.127 142.431 165.169C145.89 165.663 149.15 166.182 152.236 166.67C182.702 171.493 195.314 173.488 209.306 123.829C211.904 114.605 213.461 106.336 214.154 98.9193Z" fill="#75C137"/>
<path d="M90.446 80.1558C92.4616 58.5846 102.001 41.3952 117.464 32.0529C136.268 20.6929 160.91 21.9275 185.073 35.4414C203.43 45.7094 222.763 63.6604 209.212 111.763C196.929 155.37 184.973 153.48 158.776 149.333C156.204 148.925 153.486 148.494 150.604 148.083C114.04 142.846 90.849 121.189 90.081 91.5572C89.9782 87.6403 90.1023 83.8342 90.446 80.1558ZM210.778 90.2595C213.682 59.1824 198.429 45.8701 183.812 37.6969C160.482 24.6487 136.788 23.3984 118.8 34.2646C101.261 44.86 91.9786 65.1791 92.6602 91.4914C93.3948 119.777 115.737 140.481 150.967 145.527C153.86 145.942 156.592 146.374 159.179 146.783C185.293 150.919 195.064 152.463 206.727 111.065C208.897 103.36 210.199 96.4542 210.778 90.2595Z" fill="#75C137"/>
<path d="M110.462 73.4446C112.093 55.985 119.819 42.0675 132.35 34.5003C147.579 25.3012 167.524 26.2937 187.069 37.2256C200.78 44.8946 217.726 59.6385 206.636 99.0012C196.677 134.345 186.976 132.811 165.723 129.447C163.652 129.118 161.461 128.774 159.142 128.441C129.556 124.204 110.791 106.662 110.168 82.6616C110.085 79.4961 110.184 76.42 110.462 73.4474L110.462 73.4446ZM207.402 81.5998C209.73 56.6888 197.517 46.0252 185.811 39.4785C167.096 29.012 148.099 28.0039 133.686 36.7091C119.637 45.1965 112.201 61.4914 112.747 82.5929C113.337 105.25 131.253 121.838 159.506 125.882C161.839 126.216 164.041 126.563 166.126 126.894C187.004 130.197 194.816 131.433 204.152 98.2973C205.894 92.1099 206.938 86.5694 207.402 81.5998Z" fill="#75C137"/>
<path d="M130.476 66.7298C131.723 53.3819 137.638 42.7394 147.229 36.9468C158.883 29.9056 174.129 30.6587 189.062 39.0091C199.555 44.8782 212.527 56.1567 204.055 86.236C196.424 113.32 188.484 112.063 172.664 109.56C171.092 109.312 169.432 109.05 167.676 108.796C145.067 105.557 130.727 92.1336 130.25 73.7593C130.186 71.3452 130.264 68.9965 130.476 66.7298ZM204.021 72.942C205.772 54.1971 196.597 46.182 187.801 41.2617C173.701 33.3771 159.4 32.608 148.566 39.1556C138.005 45.5348 132.419 57.8 132.829 73.6935C133.273 90.7217 146.764 103.192 168.039 106.239C169.81 106.495 171.484 106.758 173.067 107.007C188.708 109.482 194.561 110.408 201.568 85.5318C202.881 80.8673 203.671 76.6893 204.021 72.942Z" fill="#75C137"/>
</svg>
